<svg width="60" height="60" viewBox="0 0 60 60" fill="none" xmlns="http://www.w3.org/2000/svg">
<g clip-path="url(#clip0)">
<path d="M55.185 15.5488C54.6101 16.1238 54.0122 16.5907 53.3824 16.9615L43.155 6.73365C43.5258 6.10423 43.9922 5.50639 44.5676 4.93098C45.6672 3.83143 45.6672 2.04203 44.5672 0.942021C43.4676 -0.157528 41.6782 -0.157986 40.5782 0.942021C36.0006 5.51966 35.9338 11.0531 36.7348 16.0492C30.9189 14.8503 24.4896 14.3403 19.3572 19.4723C17.0372 21.7927 15.7033 24.5178 15.2794 27.8041C15.2172 28.2861 15.5577 28.7274 16.0398 28.7896C16.5204 28.8519 16.9631 28.5113 17.0249 28.0293C17.3975 25.1436 18.5671 22.7517 20.6019 20.717C25.3306 15.9883 31.3044 16.669 37.0736 17.92C37.2457 18.782 37.3981 19.4581 37.5661 20.2011C31.834 18.8974 26.2822 17.9759 22.0955 22.223C12.737 31.5948 28.6393 47.5832 18.178 58.0444C17.7646 58.4578 17.0917 58.4578 16.6784 58.0444C16.2645 57.6311 16.2645 56.9582 16.6784 56.5448C23.3118 49.9109 17.3847 40.3811 16.9201 31.2575C16.8949 30.7722 16.4852 30.3978 15.9963 30.4234C15.5106 30.4481 15.1371 30.8619 15.1618 31.3472C15.2584 33.2396 15.5797 35.1361 15.9336 36.85C10.9375 36.0493 5.40454 36.1162 0.826894 40.6933C-0.275402 41.7952 -0.27586 43.58 0.826894 44.6823C1.92919 45.7851 3.71356 45.7851 4.81631 44.6823C5.39126 44.1073 5.9891 43.6409 6.61853 43.2701L16.8464 53.4975C16.4751 54.1273 16.0086 54.7252 15.4337 55.3001C14.3337 56.3997 14.3337 58.1895 15.4337 59.2891C16.5332 60.3891 18.3226 60.3891 19.4227 59.2891C24.0003 54.7115 24.0671 49.178 23.266 44.182C29.9045 45.5502 35.8367 45.5658 40.6437 40.7588C45.7761 35.6264 45.2653 29.1961 44.0664 23.3802C45.7363 23.6458 47.4136 23.8064 49.1023 23.7533C49.5879 23.7378 49.9693 23.3313 49.9542 22.8456C49.9386 22.3599 49.533 21.9767 49.0469 21.9937C47.4694 22.0431 45.7468 21.8953 43.6622 21.5277C43.4928 20.7847 43.328 20.0848 43.1426 19.2801C48.0247 20.2629 52.6714 20.5517 56.4297 16.7935C56.843 16.3801 57.5155 16.3801 57.9293 16.7935C58.3441 17.2078 58.3441 17.8788 57.9293 18.2931C56.2827 19.9401 54.4228 21.0095 52.2439 21.562C51.7729 21.6815 51.4877 22.1598 51.6071 22.6313C51.7266 23.1024 52.2054 23.3876 52.6765 23.2681C55.1713 22.6355 57.2967 21.4155 59.174 19.5378C59.7068 19.0049 60.0002 18.2968 60.0002 17.5433C60.0002 15.038 56.9515 13.7823 55.185 15.5488ZM3.57165 43.4376C3.15691 43.8524 2.48629 43.8524 2.07155 43.4376C1.65728 43.0234 1.65682 42.3527 2.07155 41.938C4.92205 39.0875 8.26373 38.2301 11.5871 38.2301C13.1943 38.2301 14.7979 38.4306 16.3392 38.7034C16.5072 39.4423 16.6784 40.1687 16.8587 40.9515C11.9767 39.9682 7.32989 39.6794 3.57165 43.4376ZM8.3475 42.5093C10.7357 41.7755 13.5921 42.0561 17.2789 42.8371C18.0603 46.5239 18.341 49.3803 17.6067 51.7685L8.3475 42.5093ZM21.9939 38.1225C21.3228 35.2244 20.7291 32.5218 20.7552 30.0764L30.0396 39.3608C27.5942 39.3869 24.8916 38.7936 21.9939 38.1225ZM32.2973 39.1296L20.9864 27.8187C21.2661 26.4839 21.8186 25.2443 22.7533 24.1127L36.0029 37.3627C34.8717 38.2979 33.6326 38.8499 32.2973 39.1296ZM37.248 36.1185L23.998 22.8685C25.1291 21.9337 26.3688 21.3812 27.7036 21.1015L39.0145 32.4124C38.7348 33.7472 38.1827 34.9869 37.248 36.1185ZM38.0074 22.1086C38.6785 25.0067 39.2718 27.7093 39.2461 30.1547L29.9618 20.8703C32.4067 20.8442 35.1098 21.4375 38.0074 22.1086ZM39.399 39.5141C34.6703 44.2429 28.697 43.5622 22.9273 42.3111C22.8032 41.6922 22.6682 41.0545 22.4347 40.03C28.2406 41.3507 33.6779 42.2356 37.8994 38.0141C47.1957 28.7182 31.4216 12.588 41.8233 2.18668C42.2367 1.77332 42.9092 1.77286 43.323 2.18668C43.7363 2.60004 43.7363 3.27296 43.323 3.68632C33.9736 13.0357 49.8571 29.0565 39.399 39.5141ZM42.7224 17.3941C41.941 13.7072 41.6604 10.8508 42.3946 8.46263L51.6538 17.7218C49.2657 18.4561 46.4092 18.1755 42.7224 17.3941Z" fill="#FF7E7E"/>
</g>
<defs>
<clipPath id="clip0">
<rect width="60" height="60" fill="white"/>
</clipPath>
</defs>
</svg>
