<svg width="60" height="60" viewBox="0 0 60 60" fill="none" xmlns="http://www.w3.org/2000/svg">
<path d="M54.8039 34.8464L45.7428 32.43C45.5299 32.3731 45.3417 32.2476 45.2075 32.0729C45.0732 31.8982 45.0003 31.6841 45 31.4638V27.9958C46.2428 27.0661 47.2516 25.8592 47.946 24.4711C48.6404 23.0831 49.0013 21.5521 49 20C50.0609 20 51.0783 19.5786 51.8284 18.8284C52.5786 18.0783 53 17.0609 53 16C53 14.9392 52.5786 13.9217 51.8284 13.1716C51.0783 12.4215 50.0609 12 49 12V6.12302C49.0001 5.52978 48.875 4.9432 48.633 4.40158C48.3909 3.85996 48.0373 3.37549 47.5953 2.97982C47.1533 2.58414 46.6328 2.28616 46.0678 2.10533C45.5028 1.9245 44.906 1.86489 44.3164 1.9304C42.8939 0.68167 41.0644 -0.00476257 39.1716 2.48741e-05H30C29.7348 2.48741e-05 29.4804 0.105382 29.2929 0.292918C29.1054 0.480454 29 0.734808 29 1.00002C28.9991 2.33694 29.4469 3.63547 30.2719 4.68752C29.4274 5.96603 28.9844 7.46785 29 9.00002V12C27.9391 12 26.9217 12.4215 26.1716 13.1716C25.4214 13.9217 25 14.9392 25 16C25 17.0609 25.4214 18.0783 26.1716 18.8284C26.9217 19.5786 27.9391 20 29 20C28.9986 21.5521 29.3595 23.0831 30.0539 24.4712C30.7483 25.8594 31.7571 27.0662 33 27.9959V31.4638C32.9997 31.6841 32.9268 31.8982 32.7926 32.0728C32.6583 32.2475 32.4702 32.3731 32.2574 32.43L23.1961 34.8463C21.4431 35.3144 19.9405 36.4452 19.0051 38H2.80213C2.38252 38 1.96825 38.0942 1.58993 38.2757C1.2116 38.4573 0.878877 38.7214 0.616313 39.0487C0.35375 39.3761 0.168054 39.7582 0.0729366 40.1669C-0.0221811 40.5756 -0.024292 41.0004 0.0667596 41.41L3.62501 57.425C3.70151 57.7689 4.45788 59.875 6.83288 60H59C59.2652 60 59.5196 59.8947 59.7071 59.7071C59.8946 59.5196 60 59.2652 60 59V41.61C59.9987 40.068 59.4889 38.5695 58.5495 37.3466C57.61 36.1238 56.2935 35.245 54.8039 34.8464ZM35 31.4638V29.1645C36.2616 29.7155 37.6234 30 39 30C40.3766 30 41.7384 29.7155 43 29.1645V31.4638C43.0009 32.011 43.1513 32.5476 43.435 33.0157C43.7186 33.4837 44.1248 33.8653 44.6095 34.1193C44.1798 35.2597 43.4127 36.242 42.4106 36.9353C41.4084 37.6287 40.2187 38.0001 39 38.0001C37.7813 38.0001 36.5916 37.6287 35.5895 36.9353C34.5873 36.242 33.8202 35.2597 33.3905 34.1193C33.8753 33.8653 34.2814 33.4837 34.5651 33.0157C34.8487 32.5477 34.9991 32.011 35 31.4638ZM51 16C50.9994 16.5303 50.7885 17.0386 50.4135 17.4135C50.0386 17.7885 49.5302 17.9994 49 18V14C49.5302 14.0007 50.0386 14.2116 50.4135 14.5865C50.7885 14.9614 50.9994 15.4698 51 16ZM47 6.12302V9.7669C46.2593 8.48186 45.5915 7.15609 45 5.7959V3.9134C45.5479 3.96852 46.0558 4.22506 46.4253 4.63329C46.7948 5.04153 46.9996 5.5724 47 6.12302ZM39.1716 2.00002C40.5796 1.996 41.9408 2.50558 43 3.43327V5.00002H35C34.1134 4.9989 33.2523 4.7038 32.5514 4.16094C31.8505 3.61809 31.3493 2.85812 31.1265 2.00002H39.1716ZM31 9.00002C30.9935 7.96724 31.2605 6.95114 31.774 6.05502C32.079 6.25048 32.4012 6.41783 32.7365 6.55502C32.248 7.71946 31.6673 8.84307 31 9.91515V9.00002ZM27 16C27.0006 15.4698 27.2115 14.9614 27.5865 14.5865C27.9614 14.2116 28.4698 14.0007 29 14V18C28.4698 17.9994 27.9614 17.7885 27.5865 17.4135C27.2115 17.0386 27.0006 16.5303 27 16ZM31 20V13.356C32.5463 11.4298 33.7999 9.28584 34.7201 6.99352C34.813 6.9979 34.9061 7.00065 35 7.00065H43.3438C43.9109 8.2714 45.3148 11.2229 47 13.3546V20C47 22.1218 46.1571 24.1566 44.6569 25.6569C43.1566 27.1572 41.1217 28 39 28C36.8783 28 34.8434 27.1572 33.3432 25.6569C31.8429 24.1566 31 22.1218 31 20ZM6.83588 58C6.54233 58.0015 6.2572 57.902 6.02821 57.7183C5.79923 57.5346 5.64029 57.2779 5.57801 56.991L2.01913 40.9765C1.99306 40.8592 1.99366 40.7376 2.02088 40.6206C2.0481 40.5036 2.10125 40.3942 2.1764 40.3004C2.25156 40.2067 2.3468 40.1311 2.4551 40.0791C2.5634 40.0271 2.682 40.0001 2.80213 40H25.1204C25.4191 40.0007 25.7084 40.1044 25.9393 40.2938C26.1703 40.4832 26.3288 40.7465 26.388 41.0393L29.4719 56.4586C29.5093 56.6456 29.5048 56.8385 29.4586 57.0235C29.4124 57.2085 29.3258 57.3809 29.2049 57.5284C29.0841 57.6758 28.932 57.7946 28.7596 57.8762C28.5873 57.9577 28.399 58 28.2084 58H6.83588ZM39 58H31.2345C31.4947 57.3904 31.564 56.7162 31.4331 56.0664L31.4199 56H39V58ZM41 58V55C41 54.7348 40.8946 54.4804 40.7071 54.2929C40.5196 54.1054 40.2652 54 40 54H31.0198L28.3491 40.6471C28.1984 39.9015 27.7947 39.2307 27.2064 38.7484C26.618 38.266 25.8812 38.0017 25.1204 38H21.5428C22.151 37.4165 22.897 36.9963 23.7114 36.7786L31.4751 34.7084C32.032 36.2579 33.0536 37.5978 34.4004 38.5449C35.7472 39.4921 37.3536 40.0004 39.0001 40.0004C40.6467 40.0004 42.253 39.4921 43.5999 38.5449C44.9467 37.5978 45.9683 36.2579 46.5251 34.7084L54.2887 36.7788C55.3527 37.0636 56.293 37.6913 56.964 38.5648C57.635 39.4382 57.9991 40.5086 58 41.61V47H52V44H50V58H41ZM52 58V49H58V58H52Z" fill="#FF7E7E"/>
<path d="M36 21.57H38.1167C39.5303 21.572 40.9365 21.3656 42.2899 20.9575L41.7101 19.0435C40.5447 19.3947 39.3339 19.5723 38.1167 19.5705H36V21.57Z" fill="#FF7E7E"/>
<path d="M34.5 16C34.7967 16 35.0867 15.912 35.3334 15.7472C35.58 15.5824 35.7723 15.3481 35.8858 15.074C35.9993 14.7999 36.0291 14.4983 35.9712 14.2074C35.9133 13.9164 35.7704 13.6491 35.5607 13.4393C35.3509 13.2296 35.0836 13.0867 34.7926 13.0288C34.5017 12.9709 34.2001 13.0006 33.926 13.1142C33.6519 13.2277 33.4176 13.42 33.2528 13.6666C33.088 13.9133 33 14.2033 33 14.5C33.0004 14.8977 33.1586 15.279 33.4398 15.5602C33.721 15.8414 34.1023 15.9996 34.5 16Z" fill="#FF7E7E"/>
<path d="M43.5 16C43.7967 16 44.0867 15.912 44.3334 15.7472C44.58 15.5824 44.7723 15.3481 44.8858 15.074C44.9993 14.7999 45.0291 14.4983 44.9712 14.2074C44.9133 13.9164 44.7704 13.6491 44.5607 13.4393C44.3509 13.2296 44.0836 13.0867 43.7926 13.0288C43.5017 12.9709 43.2001 13.0006 42.926 13.1142C42.6519 13.2277 42.4176 13.42 42.2528 13.6666C42.088 13.9133 42 14.2033 42 14.5C42.0004 14.8977 42.1586 15.279 42.4398 15.5602C42.721 15.8414 43.1023 15.9996 43.5 16Z" fill="#FF7E7E"/>
<path d="M14.8235 45.9999C14.4287 45.9953 14.0374 46.0742 13.6753 46.2314C13.3131 46.3886 12.9883 46.6205 12.7221 46.9121C12.4558 47.2036 12.2542 47.5481 12.1305 47.923C12.0067 48.2979 11.9636 48.6947 12.0039 49.0874C12.0777 49.8798 12.4432 50.6165 13.0294 51.1546C13.6156 51.6928 14.3808 51.994 15.1765 51.9999C15.5713 52.0046 15.9626 51.9257 16.3247 51.7685C16.6869 51.6113 17.0117 51.3794 17.278 51.0878C17.5442 50.7963 17.7458 50.4518 17.8696 50.0769C17.9933 49.702 18.0365 49.3052 17.9961 48.9124C17.9223 48.1201 17.5569 47.3834 16.9707 46.8453C16.3844 46.3071 15.6193 46.0059 14.8235 45.9999ZM15.7985 49.7417C15.7186 49.8259 15.6219 49.8924 15.5147 49.9369C15.4074 49.9814 15.2921 50.0029 15.176 49.9999C14.8815 49.9906 14.6002 49.8755 14.3834 49.6759C14.1667 49.4762 14.0291 49.2052 13.9956 48.9124C13.9821 48.7952 13.9934 48.6764 14.0287 48.5638C14.064 48.4511 14.1225 48.3472 14.2005 48.2586C14.2804 48.1743 14.3771 48.1078 14.4843 48.0634C14.5916 48.0189 14.707 47.9974 14.823 48.0003C15.1175 48.0097 15.3989 48.1247 15.6156 48.3244C15.8323 48.5241 15.9699 48.795 16.0034 49.0878C16.017 49.205 16.0058 49.3238 15.9706 49.4364C15.9354 49.5491 15.8769 49.6531 15.799 49.7417H15.7985Z" fill="#DB5461"/>
</svg>
