<svg width="60" height="60" viewBox="0 0 60 60" fill="none" xmlns="http://www.w3.org/2000/svg">
<g clip-path="url(#clip0)">
<path d="M59.6523 0.338089C59.3322 0.022152 58.8588 -0.0833165 58.4354 0.0683238L9.76136 17.4234C8.07034 16.3893 5.92546 16.1472 3.95824 16.9618C0.692819 18.3145 -0.863546 22.0716 0.48903 25.3373C3.67875 33.0374 8.28409 39.93 14.1776 45.8235C20.071 51.717 26.9635 56.3224 34.6638 59.512C35.4635 59.8432 36.2923 60 37.1084 60C39.625 59.9999 42.0179 58.5087 43.0391 56.0427C43.7263 54.3836 43.6614 52.5979 43.0041 51.0646L59.9378 1.55133C60.0833 1.1257 59.9725 0.654143 59.6523 0.338089ZM17.1313 17.2838L22.2898 15.4447C22.8955 16.0899 23.1907 16.9782 23.0724 17.8766C22.9681 18.6676 22.5622 19.3708 21.9293 19.8566C21.2963 20.3423 20.5126 20.5522 19.721 20.4482C18.9301 20.3441 18.227 19.9382 17.7412 19.3052C17.2937 18.722 17.0808 18.0104 17.1313 17.2838ZM40.8738 55.1456C40.0157 57.2173 37.6319 58.2046 35.5607 57.3463C20.5561 51.1313 8.86979 39.4449 2.65453 24.4402C2.23887 23.4368 2.23887 22.3316 2.65453 21.328C3.0702 20.3245 3.85172 19.543 4.85519 19.1273C5.85867 18.7116 6.96398 18.7116 7.96745 19.1273C8.97093 19.543 9.75245 20.3245 10.1681 21.328C12.8284 27.7507 16.6698 33.4996 21.5856 38.4154C26.5013 43.3312 32.2503 47.1725 38.673 49.8328C40.7446 50.6908 41.7319 53.0742 40.8738 55.1456ZM51.285 19.6088C51.179 19.6063 51.0728 19.6002 50.9669 19.5863C50.176 19.4822 49.4728 19.0762 48.9872 18.4433C48.5015 17.8104 48.2914 17.026 48.3954 16.2351C48.6105 14.6022 50.1134 13.4489 51.7469 13.6636C52.2508 13.7299 52.7238 13.9254 53.1273 14.2227L51.285 19.6088ZM53.9063 11.9441C53.3353 11.6332 52.708 11.4261 52.0527 11.3399C49.1381 10.9551 46.4554 13.0149 46.0717 15.9293C45.8859 17.3409 46.2608 18.7405 47.1277 19.8702C47.9626 20.9582 49.158 21.6691 50.5063 21.8859L48.1771 28.6967L45.4984 26.6412C44.985 26.2475 44.2492 26.3441 43.8554 26.8576C43.4614 27.3711 43.5583 28.1067 44.0717 28.5007L47.3769 31.0368L41.3191 48.7503C40.8109 48.3085 40.2258 47.9389 39.5704 47.6673C27.1509 42.5229 17.4783 32.8503 12.3341 20.431C12.1553 19.9991 11.9331 19.5981 11.6768 19.2287L14.8149 18.1098C14.9245 19.0552 15.2874 19.9571 15.8819 20.7318C16.7486 21.8615 18.0036 22.586 19.4152 22.7717C19.6517 22.8029 19.8875 22.8184 20.1221 22.8184C21.2879 22.8184 22.4157 22.4375 23.3561 21.716C24.4859 20.849 25.2103 19.5943 25.3962 18.1824C25.563 16.915 25.2672 15.6597 24.6031 14.6198L39.1703 9.42585L39.7224 10.7587C39.9094 11.21 40.3457 11.4825 40.8055 11.4825C40.955 11.4825 41.1068 11.4537 41.2536 11.393C41.8514 11.1453 42.1354 10.4597 41.8878 9.86178L41.3808 8.63776L56.9338 3.09222L53.9063 11.9441Z" fill="#FF7E7E"/>
<path d="M12.6562 31.4388C12.6527 31.4333 12.643 31.4184 12.6392 31.413C12.2804 30.8747 11.5542 30.7302 11.0157 31.0887C10.4782 31.4466 10.3324 32.1731 10.6882 32.7115C10.9126 33.0563 11.2881 33.2444 11.6716 33.2444C11.8886 33.2444 12.1081 33.1841 12.3041 33.0582C12.8485 32.7081 13.0061 31.9831 12.6562 31.4388Z" fill="#FF7E7E"/>
<path d="M10.8739 28.5275C9.73193 26.5252 8.70536 24.4297 7.82283 22.2993C7.57521 21.7012 6.88931 21.4176 6.29178 21.6652C5.69377 21.9128 5.40994 22.5984 5.65768 23.1963C6.5776 25.4171 7.64775 27.6014 8.83814 29.6885C9.05435 30.0675 9.44997 30.2801 9.85708 30.2801C10.054 30.2801 10.2535 30.2304 10.4366 30.126C10.9987 29.8053 11.1947 29.0896 10.8739 28.5275Z" fill="#FF7E7E"/>
<path d="M36.6717 14.9986C36.4395 14.9679 36.2036 14.9524 35.9706 14.9524C33.3085 14.9524 31.0385 16.9452 30.6907 19.5877C30.307 22.5019 32.3657 25.1851 35.2799 25.5687C35.5122 25.5994 35.7481 25.6149 35.981 25.6149C38.6431 25.6149 40.913 23.6221 41.2609 20.9793C41.6445 18.0652 39.5858 15.3822 36.6717 14.9986ZM38.9373 20.6735C38.7423 22.1544 37.4714 23.271 35.981 23.271C35.85 23.271 35.717 23.2624 35.5859 23.245C33.9529 23.03 32.7995 21.5266 33.0144 19.8936C33.2094 18.4128 34.4802 17.2963 35.9706 17.2963C36.1016 17.2963 36.2346 17.3049 36.3657 17.3223C37.9986 17.5374 39.1522 19.0407 38.9373 20.6735Z" fill="#FF7E7E"/>
<path d="M36.3669 29.575C36.1345 29.5443 35.8987 29.5288 35.6657 29.5288C33.0036 29.5288 30.7337 31.5216 30.3859 34.1643C30.1999 35.576 30.5749 36.9755 31.4417 38.1053C32.3084 39.235 33.5633 39.9594 34.975 40.1454C35.2072 40.176 35.443 40.1913 35.6758 40.1913C38.3379 40.1913 40.608 38.1986 40.9559 35.5558C41.3397 32.6418 39.281 29.9589 36.3669 29.575ZM38.6324 35.25C38.4374 36.7309 37.1664 37.8476 35.676 37.8476C35.5451 37.8476 35.4121 37.8388 35.2811 37.8216C34.4901 37.7173 33.787 37.3113 33.3012 36.6784C32.8155 36.0455 32.6054 35.2613 32.7096 34.4701C32.9046 32.9894 34.1755 31.8727 35.6657 31.8727C35.7967 31.8727 35.9298 31.8813 36.0609 31.8987C37.6937 32.1137 38.8472 33.6171 38.6324 35.25Z" fill="#FF7E7E"/>
<path d="M28.6377 24.7202L25.0358 24.2459C24.3944 24.1607 23.8055 24.613 23.721 25.2546C23.6364 25.8964 24.0881 26.485 24.7297 26.5695L28.3316 27.0437C28.3835 27.0507 28.4351 27.0539 28.486 27.0539C29.0651 27.0539 29.5687 26.6247 29.6463 26.035C29.731 25.3934 29.2794 24.8046 28.6377 24.7202Z" fill="#FF7E7E"/>
<path d="M26.8113 33.3683L26.4933 30.9514C26.4088 30.3097 25.8203 29.8579 25.1785 29.9426C24.5368 30.0271 24.0852 30.6156 24.1697 31.2573L24.4878 33.6742C24.5654 34.264 25.069 34.6932 25.6481 34.6932C25.6991 34.6932 25.7507 34.6899 25.8024 34.683C26.4442 34.5985 26.8958 34.01 26.8113 33.3683Z" fill="#FF7E7E"/>
</g>
<defs>
<clipPath id="clip0">
<rect width="60" height="60" fill="white"/>
</clipPath>
</defs>
</svg>
