<svg width="60" height="60" viewBox="0 0 60 60" fill="none" xmlns="http://www.w3.org/2000/svg">
<path d="M11.2085 0.343357C10.9906 0.12539 10.6882 0 10.38 0C10.0718 0 9.76949 0.12539 9.55152 0.343357C9.33355 0.561325 9.20816 0.863667 9.20816 1.17187C9.20816 1.48007 9.33355 1.78241 9.55152 2.00038C9.76949 2.21835 10.0718 2.34374 10.38 2.34374C10.6882 2.34374 10.9906 2.21835 11.2085 2.00038C11.4265 1.78241 11.5519 1.48007 11.5519 1.17187C11.5519 0.863667 11.4265 0.561325 11.2085 0.343357Z" fill="#FF7E7E"/>
<path d="M49.3116 29.3458C49.2837 29.2287 49.2385 29.1187 49.1784 29.0182C48.6899 27.8484 48.0946 26.7208 47.3954 25.6539L46.7505 24.67C46.7172 24.6193 46.6797 24.5731 46.6404 24.5293C46.8336 24.107 46.9422 23.6383 46.9422 23.1445C46.9422 20.3982 44.7081 18.164 41.9618 18.164H39.2041C39.8693 17.2407 40.2626 16.1092 40.2626 14.8869C40.2626 13.2137 39.5487 11.6127 38.3038 10.4945L26.9832 0.32598C26.5017 -0.10644 25.7608 -0.0669478 25.3283 0.41469C24.8959 0.896093 24.9355 1.63707 25.417 2.0696L36.7375 12.238C37.4882 12.9123 37.9187 13.8778 37.9187 14.8869C37.9187 16.6938 36.4486 18.1639 34.6417 18.1639H34.5203C34.4546 18.1639 34.3891 18.1694 34.3244 18.1804L22.6437 20.1621C22.6339 20.1637 22.6138 20.1671 22.5905 20.1475C22.5672 20.128 22.5672 20.1075 22.5672 20.0976V7.49992C22.5672 6.8527 22.0426 6.32805 21.3954 6.32805C20.7482 6.32805 20.2235 6.8527 20.2235 7.49992V20.0975C20.2235 20.8084 20.535 21.4793 21.078 21.9379C21.6211 22.3967 22.3348 22.5914 23.0355 22.4726L34.6191 20.5077H41.9618C43.4157 20.5077 44.5985 21.6904 44.5985 23.1444C44.5985 23.6936 44.1517 24.1404 43.6024 24.1404H34.7548C34.602 24.1404 34.4506 24.1703 34.3092 24.2285L21.7285 29.4006C19.8879 30.1574 17.7868 30.133 15.9641 29.3338C13.2837 28.1586 11.5518 25.508 11.5518 22.5813V4.80463C11.5518 4.1574 11.0272 3.63276 10.3799 3.63276C9.73271 3.63276 9.20807 4.1574 9.20807 4.80463V22.5813C9.20807 26.1251 11.1358 29.3604 14.1885 31.064V35.5525C14.1885 36.4854 14.0392 37.4073 13.7448 38.2925C11.6042 44.7296 11.4257 51.5885 13.2284 58.1281L13.5071 59.1392C13.6504 59.659 14.1219 60 14.6362 60C14.7393 60 14.8441 59.9863 14.9483 59.9575C15.5723 59.7855 15.9386 59.1403 15.7667 58.5164L15.488 57.5053C13.8091 51.415 13.9753 45.0271 15.9689 39.0322C16.3428 37.908 16.5324 36.7373 16.5324 35.5526V31.9954C17.3161 32.1932 18.1211 32.294 18.9264 32.294C20.1843 32.294 21.4425 32.0523 22.6199 31.5683L34.9862 26.4842H43.6023C44.0818 26.4842 44.5377 26.3818 44.9503 26.1991L45.4351 26.9388C46.0479 27.8737 46.5657 28.8458 46.9914 29.8431C46.8754 31.4174 45.5584 32.6631 43.955 32.6631C41.3852 32.6631 39.2312 34.4714 38.6951 36.8819C38.6215 36.8817 38.5479 36.8835 38.4741 36.8893C37.7856 36.944 36.7608 37.291 35.7887 38.6334C35.6364 38.8439 35.3385 38.94 34.9783 38.9622C35.8339 38.0054 36.3552 36.7438 36.3552 35.3621C36.3552 32.3803 33.9292 29.9543 30.9474 29.9543C27.9656 29.9543 25.5397 32.3803 25.5397 35.3621C25.5397 36.3153 25.7885 37.2111 26.2232 37.9896C26.2096 38.0333 26.1977 38.0779 26.1891 38.1241C26.1761 38.1941 25.8748 39.8599 26.2862 41.8461C26.8478 44.5587 28.4479 46.5918 30.9133 47.7253C32.6975 48.5457 34.263 48.8854 35.607 48.8853C38.2997 48.8852 40.1014 47.5206 40.9795 45.9225C41.0575 46.0239 41.1262 46.1358 41.1531 46.2111C41.3756 47.0097 42.2003 47.4651 43.2096 47.3447C44.478 47.1932 45.8679 46.1655 45.9221 44.267C45.9663 42.7192 45.0164 40.976 43.5582 39.9291C42.858 39.4265 42.1164 39.1427 41.3822 39.0826C41.2919 38.6469 41.1212 38.269 40.9111 37.9808C40.9494 36.3344 42.2996 35.0067 43.955 35.0067C45.588 35.0067 47.0527 34.2756 48.0419 33.1247C49.3164 38.9407 47.7087 45.1559 43.4019 49.7019C41.9064 51.2804 41.0828 53.3473 41.0828 55.5217V58.8277C41.0828 59.475 41.6074 59.9996 42.2546 59.9996C42.9019 59.9996 43.4265 59.475 43.4265 58.8277V55.5218C43.4265 53.9496 44.022 52.4552 45.1032 51.3138C48.305 47.9343 50.2963 43.5193 50.7106 38.8823C51.0008 35.6341 50.5089 32.3564 49.3116 29.3458ZM30.9475 32.2982C32.637 32.2982 34.0116 33.6727 34.0116 35.3623C34.0116 37.0517 32.6371 38.4262 30.9475 38.4262C29.258 38.4262 27.8835 37.0517 27.8835 35.3623C27.8835 33.6727 29.258 32.2982 30.9475 32.2982ZM41.0525 41.4177C41.513 41.4068 41.9456 41.6567 42.1915 41.8332C42.9913 42.4074 43.601 43.4471 43.5794 44.2003C43.5713 44.484 43.4887 44.6916 43.3267 44.8352C43.2663 44.8887 43.2017 44.9279 43.1406 44.956C42.7674 44.2897 42.0627 43.4908 41.0842 43.3871C40.6766 43.3441 39.6539 43.3879 38.9616 44.7263C38.1293 46.3353 35.8353 47.4086 31.8924 45.5958C29.1151 44.3188 28.4997 41.7962 28.4176 40.1396C29.173 40.5412 30.0339 40.7698 30.9475 40.7698C31.254 40.7698 31.5542 40.7429 31.8469 40.6937C32.417 40.9286 36.0296 42.297 37.6872 40.008C38.0264 39.5395 38.39 39.2471 38.6599 39.2257C38.8163 39.2138 38.9453 39.2986 39.0311 39.3793C39.0776 39.4593 39.1833 39.7708 39.0251 40.2066C38.663 41.2043 37.2208 42.1143 35.0684 42.7038C34.4441 42.8748 34.0768 43.5193 34.2476 44.1435C34.3902 44.6642 34.8623 45.0061 35.3772 45.0061C35.4797 45.0061 35.5838 44.9926 35.6874 44.9643C39.0087 44.0548 40.4505 42.6416 41.0525 41.4177Z" fill="#FF7E7E"/>
</svg>
