<svg width="60" height="60" viewBox="0 0 60 60" fill="none" xmlns="http://www.w3.org/2000/svg">
<g clip-path="url(#clip0)">
<path d="M54.3681 19.6544C55.839 18.9024 56.4218 17.1004 55.6698 15.6296C54.9178 14.1587 53.1158 13.5759 51.6449 14.3279C50.9615 14.6773 50.4386 15.2759 50.1844 16.0001H32.8158C32.2734 14.4449 30.573 13.6241 29.018 14.1664C28.1591 14.4659 27.4839 15.1412 27.1844 16.0001H9.81577C9.26727 14.4409 7.55864 13.6217 5.99952 14.1702C4.44039 14.7187 3.62114 16.4273 4.16964 17.9864C4.43489 18.7403 4.99064 19.3568 5.71302 19.6986L2.05127 30.6836L3.94877 31.3164L7.00002 22.1621L10.0513 31.3163L11.9488 30.6834L8.28714 19.6983C9.00089 19.3561 9.55039 18.7456 9.81577 17.9998H27.1844C27.4864 18.8469 28.153 19.5134 29 19.8154V49.9999H27C25.896 50.0012 25.0013 50.8959 25 51.9999V53.9999H22C21.4479 53.9998 21.0001 54.4473 21 54.9994C21 54.9996 21 54.9998 21 54.9999V58.9999C20.9999 59.5521 21.4474 59.9998 21.9995 59.9999C21.9996 59.9999 21.9999 59.9999 22 59.9999H38C38.5521 60.0001 38.9999 59.5526 39 59.0004C39 59.0003 39 59.0001 39 58.9999V54.9999C39.0001 54.4478 38.5526 54.0001 38.0005 53.9999C38.0004 53.9999 38.0001 53.9999 38 53.9999H35V51.9999C34.9988 50.8959 34.104 50.0012 33 49.9999H31V19.8157C31.8471 19.5137 32.5138 18.8471 32.8158 17.9999H50.1844C50.4399 18.7148 50.9573 19.3062 51.632 19.6543L49.0811 25.6063L50.919 26.3934L53 21.5391L55.081 26.3936L56.9189 25.6064L54.3681 19.6544ZM7.00002 17.9999C6.44777 17.9999 6.00002 17.5522 6.00002 16.9999C6.00052 16.4479 6.44802 16.0004 7.00002 15.9999C7.55227 15.9999 8.00002 16.4477 8.00002 16.9999C8.00002 17.5522 7.55227 17.9999 7.00002 17.9999ZM37 55.9999V57.9999H23V55.9999H37ZM33 51.9999V53.9999H27V51.9999H33ZM30 17.9999C29.4478 17.9999 29 17.5522 29 16.9999C29.0005 16.4479 29.448 16.0004 30 15.9999C30.5523 15.9999 31 16.4477 31 16.9999C31 17.5522 30.5523 17.9999 30 17.9999ZM53 17.9999C52.4478 17.9999 52 17.5522 52 16.9999C52.0005 16.4479 52.448 16.0004 53 15.9999C53.5523 15.9999 54 16.4477 54 16.9999C54 17.5522 53.5523 17.9999 53 17.9999Z" fill="#FF7E7E"/>
<path d="M36.7074 6.2931C36.7072 6.29297 36.7071 6.29285 36.707 6.29273L30.707 0.292725C30.3168 -0.0977754 29.6837 -0.0979004 29.2934 0.29235C29.2932 0.292475 29.2931 0.2926 29.293 0.292725L23.293 6.29273C22.9025 6.68298 22.9024 7.31597 23.2926 7.70635C23.2927 7.70647 23.2929 7.7066 23.293 7.70672L29.293 13.7067C29.6832 14.0972 30.3163 14.0973 30.7068 13.7071C30.7069 13.707 30.707 13.7068 30.7071 13.7067L36.7071 7.70672C37.0975 7.31647 37.0976 6.6836 36.7074 6.2931ZM30 11.5857L25.4141 6.99972L30 2.41385L34.586 6.99972L30 11.5857Z" fill="#FF7E7E"/>
<path d="M19.0005 27C19.0004 27 19.0001 27 19 27H13V29H16.5859L11.0238 34.5621C8.57837 32.3343 4.79 32.5104 2.562 34.9557C0.487625 37.2327 0.47825 40.712 2.5405 43H1C0.447875 42.9999 0.000125 43.4474 0 43.9995C0 43.9996 0 43.9999 0 44C0 46.8037 3.07475 49 7 49C10.9253 49 14 46.8037 14 44C14.0001 43.4479 13.5526 43.0001 13.0005 43C13.0004 43 13.0001 43 13 43H11.4595C13.1591 41.118 13.4855 38.368 12.2736 36.1405L18 30.4141V34H20V28C20.0001 27.4479 19.5526 27.0001 19.0005 27ZM7 35C9.20913 35 11 36.7909 11 39C11 41.2091 9.20913 43 7 43C4.79187 42.9976 3.00237 41.2081 3 39C3 36.7909 4.79087 35 7 35ZM11.7026 45C10.999 46.1524 9.12938 47 7 47C4.87063 47 3.001 46.1524 2.29737 45H11.7026Z" fill="#FF7E7E"/>
<path d="M59.0005 42.9999C59.0004 42.9999 59.0001 42.9999 59 42.9999H54V40.9999H56V38.9999H54V36.8988C56.7056 36.3465 58.4512 33.7054 57.899 30.9998C57.3467 28.2941 54.7056 26.5485 52 27.1008C49.2944 27.653 47.5488 30.2941 48.101 32.9998C48.5019 34.9634 50.0364 36.4979 52 36.8988V38.9999H50V40.9999H52V42.9999H47C46.4479 42.9998 46.0001 43.4473 46 43.9994C46 43.9995 46 43.9998 46 43.9999C46 46.8036 49.0747 48.9999 53 48.9999C56.9253 48.9999 60 46.8036 60 43.9999C60.0001 43.4478 59.5526 43 59.0005 42.9999ZM50 31.9999C50 30.343 51.3431 28.9999 53 28.9999C54.6569 28.9999 56 30.343 56 31.9999C56 33.6568 54.6569 34.9999 53 34.9999C51.3439 34.9981 50.0019 33.656 50 31.9999ZM53 46.9999C50.8706 46.9999 49.001 46.1523 48.2974 44.9999H57.7026C56.999 46.1523 55.1294 46.9999 53 46.9999Z" fill="#FF7E7E"/>
</g>
<defs>
<clipPath id="clip0">
<rect width="60" height="60" fill="white"/>
</clipPath>
</defs>
</svg>
