<svg width="60" height="60" viewBox="0 0 60 60" fill="none" xmlns="http://www.w3.org/2000/svg">
<g clip-path="url(#clip0)">
<path d="M51.6793 49.2024C52.3261 49.2024 52.8512 48.6773 52.8512 48.0305C52.8512 47.3832 52.3261 46.8582 51.6793 46.8582C51.032 46.8582 50.507 47.3832 50.507 48.0305C50.507 48.6773 51.032 49.2024 51.6793 49.2024Z" fill="#FF7E7E"/>
<path d="M0.162527 23.4585C0.433066 24.7897 0.892204 26.0421 1.52758 27.1811C3.59576 30.8903 4.56622 34.7529 4.56622 38.2526V52.7184C4.56622 53.3652 5.09082 53.8903 5.7381 53.8903H10.4261C11.0729 53.8903 11.5979 53.3652 11.5979 52.7184V39.6437C11.5979 37.0019 12.2068 34.3506 13.3599 31.9725L13.467 31.7999C19.016 36.4188 23.4582 42.3061 26.3581 48.8992C27.6911 51.931 30.6483 53.8903 33.8911 53.8903H43.4753C48.1028 53.8903 51.7398 53.7946 54.4474 53.3286C55.7919 53.0969 59.8829 52.3934 59.8829 49.2023C59.8829 47.3978 58.3879 44.7775 56.0739 42.5272C54.5202 41.0152 51.2481 38.3816 46.7973 37.727C46.4512 37.6762 46.101 37.7824 45.8415 38.0164C44.6797 39.0651 42.4027 39.8264 40.4284 39.8264C37.6219 39.8264 34.65 38.2242 33.5162 36.0997C33.4937 36.058 33.469 36.0178 33.442 35.9788L25.6188 24.8172C20.777 17.91 14.9968 11.7178 8.43937 6.41321C8.01182 6.06714 7.40162 6.06485 6.97177 6.40771C5.14255 7.86569 3.61636 9.60977 2.43533 11.5914C0.157492 15.4151 -0.575847 19.7754 0.155203 23.4233C0.157492 23.4352 0.159781 23.4471 0.162527 23.4585ZM9.25373 39.6437V51.546H6.90998V38.2526C6.90998 37.9001 6.89853 37.5201 6.87656 37.1246C6.51996 30.7004 3.72805 26.4587 3.20346 25.3038C6.17526 26.6821 8.99418 28.368 11.6167 30.3369C10.3514 32.3849 9.25373 35.9779 9.25373 39.6437ZM4.44903 12.7912C5.32611 11.3195 6.42154 9.99613 7.71289 8.84714C13.7934 13.8766 19.168 19.698 23.6999 26.1625L31.4837 37.2688C33.0419 40.1134 36.7892 42.1706 40.4284 42.1706C42.7365 42.1706 45.3219 41.3489 46.9552 40.1303C50.5029 40.8055 53.1488 42.9511 54.4397 44.2072C56.4744 46.1865 57.5387 48.2181 57.5387 49.2023C57.5387 50.2071 55.6418 50.7445 54.0496 51.0187C51.5059 51.4563 47.9824 51.546 43.4753 51.546H33.8911C31.5775 51.546 29.4627 50.137 28.5036 47.9558C23.4289 36.4178 14.0497 27.2259 2.35064 22.3695C1.92538 19.4856 2.56625 15.9521 4.44903 12.7912Z" fill="#FF7E7E"/>
<path d="M33.8654 49.2024H46.9914C47.6386 49.2024 48.1632 48.6773 48.1632 48.0305C48.1632 47.3832 47.6386 46.8582 46.9914 46.8582H33.8654C33.2181 46.8582 32.6931 47.3832 32.6931 48.0305C32.6931 48.6773 33.2181 49.2024 33.8654 49.2024Z" fill="#FF7E7E"/>
</g>
<defs>
<clipPath id="clip0">
<rect width="60" height="59.8829" fill="white"/>
</clipPath>
</defs>
</svg>
