<svg width="60" height="60" viewBox="0 0 60 60" fill="none" xmlns="http://www.w3.org/2000/svg">
<g clip-path="url(#clip0)">
<path d="M48.6342 18.596L51.3782 10.5037C51.6048 9.83514 51.4325 9.09571 50.9332 8.59638C50.4338 8.09756 49.6949 7.92473 49.0264 8.15189L40.9341 10.8959L34.0857 5.7851C33.5196 5.36338 32.7636 5.2987 32.1344 5.61952C31.5057 5.93981 31.113 6.58973 31.1223 7.29552L31.2314 15.8396L24.2547 20.7734C23.6783 21.1812 23.3834 21.8807 23.4936 22.5777C23.6043 23.2753 24.1011 23.8491 24.7748 24.0587L28.2396 25.1355L1.27241 52.1027C-0.424298 53.8035 -0.424298 56.5563 1.27241 58.2566L1.28327 58.2675C2.98411 59.9575 5.73175 59.9528 7.4269 58.2571L34.3946 31.29L35.4719 34.7543C35.6789 35.43 36.2543 35.9278 36.9528 36.036C37.0506 36.0515 37.149 36.0593 37.2483 36.0593C37.8491 36.0593 38.412 35.7669 38.7567 35.2748L43.691 28.2981L52.2351 28.4073C52.9409 28.4166 53.5908 28.0239 53.9111 27.3952C54.2314 26.7659 54.1672 26.0094 53.745 25.4439L48.6342 18.596ZM5.92838 56.7586C5.05648 57.6305 3.64334 57.6305 2.77196 56.7586L2.76368 56.7503C1.90058 55.8769 1.90421 54.471 2.77093 53.6017L11.6342 44.7384L14.7912 47.8953L5.92838 56.7586ZM16.2907 46.3968L13.1338 43.2399L30.5267 25.8464L32.9349 26.5947L33.6836 29.0034L16.2907 46.3968ZM43.5787 26.1776C42.9681 26.1693 42.3933 26.4622 42.0409 26.961L37.3368 33.6128L34.9182 25.833C34.7371 25.2498 34.2808 24.7934 33.6976 24.6123L25.9173 22.1938L32.5696 17.4897C33.0679 17.1373 33.3607 16.5619 33.353 15.9519L33.249 7.8052L39.7786 12.678C40.2681 13.0428 40.9056 13.1437 41.4836 12.9481L49.1992 10.3314L46.5825 18.0475C46.3864 18.6255 46.4878 19.263 46.8526 19.752L51.7254 26.2816L43.5787 26.1776Z" fill="#FF7E7E"/>
<path d="M16.4728 12.0669L17.767 12.4244L17.4094 13.7191C17.2537 14.2836 17.5854 14.8668 18.1494 15.0225C18.7134 15.1783 19.2971 14.8471 19.4528 14.2831L19.8104 12.9884L21.105 13.346C21.669 13.5017 22.2527 13.1706 22.4085 12.606C22.5642 12.042 22.233 11.4583 21.6685 11.3026L20.3739 10.945L20.7319 9.65039C20.8877 9.08638 20.5565 8.5027 19.992 8.34695C19.428 8.1912 18.8443 8.52236 18.6885 9.08638L18.331 10.381L17.0363 10.0235C16.4723 9.86772 15.8887 10.1989 15.7329 10.7629C15.5772 11.3274 15.9083 11.9106 16.4723 12.0663L16.4728 12.0669Z" fill="#FF7E7E"/>
<path d="M50.0467 46.0982L49.3844 45.9155L49.5671 45.2532C49.7228 44.6892 49.3917 44.1055 48.8271 43.9497C48.2631 43.794 47.6794 44.1251 47.5237 44.6897L47.341 45.352L46.6787 45.1693C46.1162 45.0183 45.5372 45.3494 45.3825 45.9108C45.2278 46.4723 45.5548 47.0534 46.1152 47.2122L46.7775 47.3949L46.5949 48.0572C46.4898 48.4236 46.5897 48.8184 46.8562 49.0905C47.1227 49.3632 47.5154 49.4714 47.8838 49.3741C48.2522 49.2768 48.5405 48.9891 48.6383 48.6207L48.8209 47.9584L49.4832 48.1416C50.0462 48.2942 50.6273 47.963 50.7825 47.4006C50.9378 46.8376 50.6087 46.2555 50.0467 46.0982Z" fill="#FF7E7E"/>
<path d="M59.2262 16.8479L57.9942 16.5079L58.3336 15.2759C58.4894 14.7119 58.1582 14.1282 57.5942 13.9725C57.0297 13.8172 56.4465 14.1484 56.2908 14.7124L55.9508 15.9444L54.7188 15.6045C54.3534 15.502 53.9612 15.6034 53.6901 15.8694C53.4195 16.1354 53.3118 16.5261 53.4081 16.8929C53.5038 17.2603 53.7889 17.548 54.1553 17.6479L55.3873 17.9873L55.0473 19.2194C54.8921 19.7839 55.2233 20.367 55.7873 20.5228C56.3513 20.6785 56.935 20.3474 57.0907 19.7828L57.4307 18.5513L58.6622 18.8908C59.2257 19.0439 59.8068 18.7128 59.962 18.1498C60.1173 17.5873 59.7882 17.0052 59.2257 16.8479H59.2262Z" fill="#FF7E7E"/>
<path d="M39.8128 4.10341L40.6836 4.34351L40.4435 5.21437C40.3411 5.5802 40.4425 5.97243 40.7085 6.24305C40.9744 6.51367 41.3651 6.6213 41.732 6.52558C42.0994 6.42933 42.3871 6.14422 42.4869 5.77787L42.727 4.90701L43.5984 5.1471C43.9668 5.25835 44.3663 5.16107 44.6421 4.89304C44.9184 4.62552 45.0276 4.22915 44.9277 3.85763C44.8279 3.4861 44.535 3.19789 44.1619 3.10475L43.2905 2.86413L43.5306 1.99276C43.6838 1.42977 43.3526 0.848684 42.7902 0.693451C42.2272 0.538217 41.6451 0.867312 41.4878 1.42926L41.2477 2.30012L40.3763 2.06002C40.0104 1.95757 39.6182 2.05847 39.3476 2.32496C39.077 2.59092 38.9693 2.98159 39.0651 3.34846C39.1613 3.71585 39.4464 4.00355 39.8128 4.1029V4.10341Z" fill="#FF7E7E"/>
</g>
<defs>
<clipPath id="clip0">
<rect width="60" height="60" fill="white"/>
</clipPath>
</defs>
</svg>
