<svg width="30" height="35" viewBox="0 0 30 35" fill="none" xmlns="http://www.w3.org/2000/svg">
<g clip-path="url(#clip0)">
<path d="M22.4989 0.0071266L18.6086 0C14.238 0 11.4135 3.30852 11.4135 8.42934V12.3158H7.50203C7.16403 12.3158 6.89032 12.6287 6.89032 13.0146V18.6457C6.89032 19.0316 7.16434 19.3441 7.50203 19.3441H11.4135V33.5531C11.4135 33.939 11.6872 34.2515 12.0253 34.2515H17.1287C17.4667 34.2515 17.7404 33.9386 17.7404 33.5531V19.3441H22.3138C22.6518 19.3441 22.9255 19.0316 22.9255 18.6457L22.9274 13.0146C22.9274 12.8293 22.8628 12.6518 22.7483 12.5207C22.6337 12.3896 22.4777 12.3158 22.3154 12.3158H17.7404V9.0212C17.7404 7.43767 18.0709 6.63379 19.8776 6.63379L22.4983 6.63272C22.836 6.63272 23.1097 6.31986 23.1097 5.93432V0.705533C23.1097 0.32034 22.8363 0.00783926 22.4989 0.0071266Z" fill="white"/>
</g>
<defs>
<clipPath id="clip0">
<rect width="30" height="34.2515" fill="white"/>
</clipPath>
</defs>
</svg>
