<svg width="30" height="30" viewBox="0 0 30 30" fill="none" xmlns="http://www.w3.org/2000/svg">
<path d="M21.8792 0H8.12071C3.64288 0 0 3.64288 0 8.12071V21.8795C0 26.3571 3.64288 29.9999 8.12071 29.9999H21.8795C26.3571 29.9999 29.9999 26.3571 29.9999 21.8795V8.12071C29.9999 3.64288 26.3571 0 21.8792 0V0ZM15 23.2028C10.4768 23.2028 6.79709 19.5231 6.79709 15C6.79709 10.4768 10.4768 6.79709 15 6.79709C19.5231 6.79709 23.2028 10.4768 23.2028 15C23.2028 19.5231 19.5231 23.2028 15 23.2028ZM23.399 8.7316C22.0623 8.7316 20.9751 7.64441 20.9751 6.30774C20.9751 4.97107 22.0623 3.88366 23.399 3.88366C24.7357 3.88366 25.8231 4.97107 25.8231 6.30774C25.8231 7.64441 24.7357 8.7316 23.399 8.7316Z" fill="white"/>
<path d="M15.0001 8.55566C11.4469 8.55566 8.55591 11.4464 8.55591 14.9998C8.55591 18.553 11.4469 21.444 15.0001 21.444C18.5534 21.444 21.4442 18.553 21.4442 14.9998C21.4442 11.4464 18.5534 8.55566 15.0001 8.55566Z" fill="white"/>
<path d="M23.3987 5.64258C23.032 5.64258 22.7336 5.94068 22.7336 6.30691C22.7336 6.67313 23.032 6.97123 23.3987 6.97123C23.7656 6.97123 24.0641 6.67336 24.0641 6.30691C24.0641 5.94045 23.7656 5.64258 23.3987 5.64258Z" fill="white"/>
</svg>
